<svg width="492" height="77" viewBox="0 0 492 77" fill="none" xmlns="http://www.w3.org/2000/svg">
<path fill-rule="evenodd" clip-rule="evenodd" d="M195.787 14.5795H187.913V61.7824C187.913 62.8578 188.118 63.882 188.528 64.855C188.937 65.8024 189.501 66.6345 190.218 67.3515C190.934 68.0684 191.767 68.6317 192.714 69.0414C193.687 69.4511 194.711 69.6559 195.787 69.6559H227.242C228.318 69.6559 229.329 69.4511 230.277 69.0414C231.25 68.6317 232.095 68.0684 232.812 67.3515C233.528 66.6345 234.092 65.8024 234.501 64.855C234.911 63.882 235.116 62.8578 235.116 61.7824V14.5795H227.242V61.7824H195.787V14.5795ZM241.595 14.5795V69.6559H249.468V49.2231H271.745C280.655 49.2231 285.11 44.755 285.11 35.8189V27.9837C285.11 19.0476 280.655 14.5795 271.745 14.5795H241.595ZM271.322 41.3495H249.468V22.453H271.322C273.422 22.453 274.932 22.9139 275.854 23.8357C276.776 24.7575 277.237 26.2682 277.237 28.3678V35.4348C277.237 37.5344 276.776 39.0451 275.854 39.9669C274.932 40.8887 273.422 41.3495 271.322 41.3495Z" fill="url(#paint0_linear_2185_610)"/>
<path d="M26.3188 76.9586C23.1654 76.9586 20.4971 76.5004 18.314 75.584C16.1578 74.6946 14.5137 73.3605 13.3817 71.5816C12.2767 69.8028 11.7242 67.6062 11.7242 64.9918V51.6101C11.7242 49.4808 11.3873 47.7559 10.7135 46.4353C10.0397 45.0876 9.00202 44.1174 7.60051 43.5244C6.199 42.9045 4.40668 42.5946 2.22355 42.5946V39.0773C4.40668 39.0773 6.199 38.7808 7.60051 38.1879C9.00202 37.5949 10.0397 36.6381 10.7135 35.3175C11.3873 33.9968 11.7242 32.2449 11.7242 30.0618V16.6396C11.7242 14.0253 12.2902 11.8422 13.4222 10.0903C14.5811 8.33838 16.2387 7.01772 18.3948 6.1283C20.578 5.21193 23.2193 4.75374 26.3188 4.75374V8.271C23.9739 8.29795 22.0199 8.62137 20.4567 9.24127C18.8935 9.86117 17.721 10.8315 16.9394 12.1521C16.1578 13.4458 15.767 15.1168 15.767 17.1652V30.4257C15.767 33.2287 15.1875 35.5196 14.0286 37.2985C12.8966 39.0504 10.9965 40.1689 8.32822 40.654V40.9774C11.0234 41.4356 12.937 42.5541 14.069 44.333C15.201 46.0849 15.767 48.3758 15.767 51.2058V64.6684C15.767 66.6898 16.1443 68.3339 16.899 69.6006C17.6806 70.8943 18.853 71.8377 20.4163 72.4306C21.9795 73.0505 23.947 73.3739 26.3188 73.4009V76.9586Z" fill="white" fill-opacity="0.16"/>
<path d="M283.09 76.9586C286.244 76.9586 288.912 76.5004 291.095 75.584C293.251 74.6946 294.895 73.3605 296.027 71.5816C297.132 69.8028 297.685 67.6062 297.685 64.9918V51.6101C297.685 49.4808 298.022 47.7559 298.696 46.4353C299.37 45.0876 300.407 44.1174 301.809 43.5244C303.21 42.9045 305.003 42.5946 307.186 42.5946V39.0773C305.003 39.0773 303.21 38.7808 301.809 38.1879C300.407 37.5949 299.37 36.6381 298.696 35.3175C298.022 33.9968 297.685 32.2449 297.685 30.0618V16.6396C297.685 14.0253 297.119 11.8422 295.987 10.0903C294.828 8.33838 293.171 7.01772 291.014 6.1283C288.831 5.21193 286.19 4.75374 283.09 4.75374V8.271C285.435 8.29795 287.389 8.62137 288.952 9.24127C290.516 9.86117 291.688 10.8315 292.47 12.1521C293.251 13.4458 293.642 15.1168 293.642 17.1652V30.4257C293.642 33.2287 294.222 35.5196 295.381 37.2985C296.513 39.0504 298.413 40.1689 301.081 40.654V40.9774C298.386 41.4356 296.472 42.5541 295.34 44.333C294.208 46.0849 293.642 48.3758 293.642 51.2058V64.6684C293.642 66.6898 293.265 68.3339 292.51 69.6006C291.729 70.8943 290.556 71.8377 288.993 72.4306C287.43 73.0505 285.462 73.3739 283.09 73.4009V76.9586Z" fill="white" fill-opacity="0.16"/>
<path d="M52.8942 42.2651V48.922H29.8932V14.495H37.643V42.2651H52.8942ZM57.8857 48.922V14.495H81.1351V21.0028H65.6355V27.759H79.3964V34.1179H65.6355V42.4141H82.2777V48.922H57.8857ZM98.7802 48.922C97.4223 46.0406 96.081 43.0434 94.7563 39.9302C93.4315 36.817 92.173 33.737 90.9807 30.6901C89.7884 27.6431 88.679 24.7287 87.6523 21.9467C86.6587 19.1647 85.7976 16.6808 85.069 14.495H93.6137C94.276 16.4821 94.9881 18.6348 95.7498 20.9531C96.5447 23.2383 97.3395 25.5235 98.1344 27.8087C98.9624 30.0939 99.7572 32.2798 100.519 34.3663C101.281 36.4527 101.993 38.2577 102.655 39.7812C103.284 38.2577 103.98 36.4527 104.742 34.3663C105.536 32.2798 106.331 30.0939 107.126 27.8087C107.954 25.5235 108.749 23.2383 109.511 20.9531C110.306 18.6348 111.034 16.4821 111.697 14.495H119.943C119.181 16.6808 118.304 19.1647 117.31 21.9467C116.317 24.7287 115.224 27.6431 114.031 30.6901C112.839 33.737 111.581 36.817 110.256 39.9302C108.931 43.0434 107.59 46.0406 106.232 48.922H98.7802ZM124.398 48.922V14.495H147.648V21.0028H132.148V27.759H145.909V34.1179H132.148V42.4141H148.79V48.922H124.398ZM177.526 42.2651V48.922H154.525V14.495H162.275V42.2651H177.526Z" fill="white"/>
<path d="M36.2754 55.7957H33.5483C33.2426 55.7957 33.0415 55.8439 32.945 55.9405C32.8484 56.037 32.8002 56.2381 32.8002 56.5438V58.7158H36.2754V60.1397H32.8002V70.4205H30.7247V60.1397H28.9871V58.7158H30.7247V56.1818C30.7247 54.9108 31.3602 54.2753 32.6312 54.2753H36.2754V55.7957ZM49.9125 68.2485V60.8878C49.9125 60.5821 49.8642 60.381 49.7677 60.2845C49.6872 60.1879 49.4861 60.1397 49.1643 60.1397H43.6619C43.3401 60.1397 43.131 60.1879 43.0344 60.2845C42.954 60.381 42.9138 60.5821 42.9138 60.8878V68.2485C42.9138 68.5703 42.954 68.7795 43.0344 68.876C43.131 68.9564 43.3401 68.9967 43.6619 68.9967H49.1643C49.4861 68.9967 49.6872 68.9564 49.7677 68.876C49.8642 68.7795 49.9125 68.5703 49.9125 68.2485ZM42.769 58.7158H50.0573C51.3283 58.7158 51.9638 59.3513 51.9638 60.6223V68.514C51.9638 69.785 51.3283 70.4205 50.0573 70.4205H42.769C41.4979 70.4205 40.8624 69.785 40.8624 68.514V60.6223C40.8624 59.3513 41.4979 58.7158 42.769 58.7158ZM62.4406 58.7158H64.9504V60.1879H62.1268C61.081 60.1879 60.5582 60.7913 60.5582 61.998V70.4205H58.4827V58.7158H60.5582V60.1879C60.8156 59.2065 61.443 58.7158 62.4406 58.7158ZM77.6103 65.1594H79.7341V68.2485C79.7341 68.5703 79.7823 68.7795 79.8789 68.876C79.9754 68.9564 80.1765 68.9967 80.4822 68.9967H85.864C86.1857 68.9967 86.3869 68.9564 86.4673 68.876C86.5638 68.7795 86.6121 68.5703 86.6121 68.2485V55.4095H88.7358V68.514C88.7358 69.785 88.1003 70.4205 86.8293 70.4205H79.5169C78.2458 70.4205 77.6103 69.785 77.6103 68.514V65.1594ZM104.201 58.7158H106.277V70.4205H104.201V69.6483C103.992 70.1631 103.549 70.4205 102.874 70.4205H97.1541C95.8831 70.4205 95.2475 69.785 95.2475 68.514V58.7158H97.323V68.2485C97.323 68.5703 97.3713 68.7795 97.4678 68.876C97.5644 68.9564 97.7655 68.9967 98.0712 68.9967H103.381C103.67 68.9967 103.879 68.9323 104.008 68.8036C104.137 68.6749 104.201 68.4577 104.201 68.152V58.7158ZM116.46 58.7158H122.155C123.426 58.7158 124.062 59.3513 124.062 60.6223V70.4205H121.986V60.8878C121.986 60.5821 121.938 60.381 121.841 60.2845C121.761 60.1879 121.56 60.1397 121.238 60.1397H115.953C115.663 60.1397 115.454 60.204 115.325 60.3327C115.197 60.4615 115.132 60.6787 115.132 60.9844V61.7808H115.108V70.4205H113.033V58.7158H115.108V59.5605C115.285 58.9974 115.736 58.7158 116.46 58.7158ZM132.893 70.4205H130.818V58.7158H132.893V70.4205ZM130.77 56.3266V54.2511H132.966V56.3266H130.77ZM148.704 68.2485V60.8878C148.704 60.5821 148.656 60.381 148.559 60.2845C148.479 60.1879 148.278 60.1397 147.956 60.1397H142.454C142.132 60.1397 141.923 60.1879 141.826 60.2845C141.746 60.381 141.705 60.5821 141.705 60.8878V68.2485C141.705 68.5703 141.746 68.7795 141.826 68.876C141.923 68.9564 142.132 68.9967 142.454 68.9967H147.956C148.278 68.9967 148.479 68.9564 148.559 68.876C148.656 68.7795 148.704 68.5703 148.704 68.2485ZM141.561 58.7158H148.849C150.12 58.7158 150.755 59.3513 150.755 60.6223V68.514C150.755 69.785 150.12 70.4205 148.849 70.4205H141.561C140.29 70.4205 139.654 69.785 139.654 68.514V60.6223C139.654 59.3513 140.29 58.7158 141.561 58.7158ZM161.232 58.7158H163.742V60.1879H160.918C159.873 60.1879 159.35 60.7913 159.35 61.998V70.4205H157.274V58.7158H159.35V60.1879C159.607 59.2065 160.235 58.7158 161.232 58.7158ZM176.561 68.2727V66.0524C176.561 65.7467 176.513 65.5456 176.416 65.449C176.336 65.3525 176.135 65.3042 175.813 65.3042H170.238C168.967 65.3042 168.331 64.6687 168.331 63.3977V60.6223C168.331 59.3513 168.967 58.7158 170.238 58.7158H176.657C177.928 58.7158 178.564 59.3513 178.564 60.6223V61.8773H176.537V60.8637C176.537 60.5419 176.488 60.3408 176.392 60.2603C176.295 60.1638 176.094 60.1155 175.789 60.1155H171.131C170.809 60.1155 170.6 60.1638 170.503 60.2603C170.423 60.3408 170.383 60.5419 170.383 60.8637V63.1322C170.383 63.454 170.423 63.6632 170.503 63.7597C170.6 63.8401 170.809 63.8804 171.131 63.8804H176.706C177.977 63.8804 178.612 64.5159 178.612 65.7869V68.514C178.612 69.785 177.977 70.4205 176.706 70.4205H170.286C169.015 70.4205 168.38 69.785 168.38 68.514V67.259H170.431V68.2727C170.431 68.5783 170.471 68.7795 170.552 68.876C170.648 68.9725 170.857 69.0208 171.179 69.0208H175.813C176.135 69.0208 176.336 68.9725 176.416 68.876C176.513 68.7795 176.561 68.5783 176.561 68.2727Z" fill="white"/>
<path fill-rule="evenodd" clip-rule="evenodd" d="M206.479 14.1175H199.253L211.606 0L223.959 14.1175H216.733L214.048 27.539H209.163L206.479 14.1175ZM218.043 11.4332L211.606 4.07635L205.169 11.4332H208.68L211.364 24.8547H211.848L214.532 11.4332H218.043Z" fill="url(#paint1_linear_2185_610)"/>
<path d="M356 25.3726C360.43 25.3726 364.859 25.3712 369.288 25.3683C369.466 25.3683 369.512 25.4105 369.509 25.5884C369.499 26.4153 369.499 27.2421 369.509 28.069C369.509 28.2406 369.474 28.2947 369.29 28.294C366.212 28.2877 363.134 28.294 360.056 28.2856C359.887 28.2856 359.845 28.3249 359.845 28.4965C359.851 30.8187 359.851 33.141 359.845 35.4637C359.845 35.6233 359.887 35.669 360.048 35.669C363.033 35.6643 366.017 35.6643 369.001 35.669C369.281 35.669 369.235 35.6549 369.235 35.9038C369.235 36.7187 369.23 37.5343 369.24 38.3493C369.24 38.5187 369.187 38.5482 369.034 38.5475C366.049 38.5433 363.065 38.5433 360.081 38.5475C359.848 38.5475 359.848 38.5475 359.848 38.7866C359.848 42.2173 359.848 45.6481 359.848 49.0788C359.848 49.3523 359.872 49.3164 359.617 49.3164C358.412 49.3164 357.207 49.3148 356.001 49.3115L356 25.3726Z" fill="white"/>
<path d="M435.189 55.816C435.164 55.7173 435.159 55.6144 435.175 55.5139C435.192 55.4133 435.229 55.3173 435.284 55.2317C436.392 52.9227 437.498 50.6127 438.601 48.3018C438.624 48.2626 438.636 48.2181 438.636 48.1728C438.636 48.1275 438.624 48.0831 438.601 48.0438C436.807 44.359 435.014 40.673 433.223 36.9859C432.694 35.8975 432.166 34.8088 431.637 33.7199L431.577 33.5941C431.633 33.5699 431.695 33.5628 431.755 33.5737C432.978 33.5737 434.201 33.5737 435.424 33.5695C435.48 33.5623 435.536 33.5749 435.584 33.605C435.631 33.6352 435.667 33.6811 435.684 33.7347C437.294 37.1903 438.907 40.6445 440.525 44.0972C440.552 44.1542 440.58 44.2111 440.618 44.2892C440.919 43.6086 441.21 42.9532 441.501 42.2944C442.764 39.4351 444.027 36.5739 445.289 33.7108C445.327 33.6257 445.36 33.5702 445.473 33.5702C446.602 33.5758 447.732 33.5737 448.861 33.5744C448.89 33.5744 448.919 33.5786 448.978 33.5828L438.735 55.8167L435.189 55.816Z" fill="#FFCD00"/>
<path d="M405.374 24C405.374 24.0823 405.37 24.1645 405.37 24.2461C405.37 32.5208 405.37 40.7955 405.37 49.0703C405.37 49.3417 405.408 49.3093 405.125 49.31C404.054 49.31 402.983 49.31 401.912 49.315C401.745 49.315 401.702 49.2763 401.702 49.104C401.707 45.0925 401.708 41.0812 401.706 37.0702C401.706 32.7953 401.706 28.5201 401.706 24.2447C401.706 24.1631 401.696 24.0823 401.691 24.0007L405.374 24Z" fill="white"/>
<path d="M472.167 24C472.148 24.0857 472.143 24.1742 472.153 24.2616C472.153 32.5072 472.153 40.7527 472.153 48.9978C472.15 49.0564 472.15 49.1151 472.153 49.1736C472.164 49.2826 472.119 49.3142 472.012 49.3142C471.673 49.3086 471.334 49.3142 470.994 49.3142C470.233 49.3142 469.473 49.3142 468.712 49.3142C468.449 49.3142 468.485 49.3417 468.485 49.0745C468.485 41.3402 468.485 33.606 468.485 25.8717C468.485 25.2501 468.485 24.6286 468.481 24.007L472.167 24Z" fill="#FFCD00"/>
<path d="M396.664 24C396.664 32.3586 396.664 40.7173 396.664 49.0759C396.664 49.3431 396.704 49.3093 396.434 49.31C395.351 49.31 394.268 49.31 393.186 49.3143C393.038 49.3143 393.003 49.2728 393.004 49.1286C393.007 40.7991 393.007 32.4697 393.004 24.1406C393.004 24.0935 393.004 24.0471 393.009 24H396.664Z" fill="white"/>
<path d="M485.86 42.1247C483.934 42.1247 482.009 42.1247 480.084 42.1205C479.921 42.1205 479.874 42.1619 479.891 42.323C479.925 43.244 480.231 44.1341 480.77 44.8808C481.31 45.6274 482.058 46.1971 482.92 46.5177C483.873 46.9045 484.904 47.055 485.928 46.9565C487.598 46.8364 489.201 46.2448 490.55 45.25C490.633 45.1959 490.733 45.1755 490.831 45.1931C490.945 45.2015 490.901 45.2985 490.901 45.3583C490.901 46.0917 490.901 46.8243 490.901 47.5576C490.901 47.8452 490.894 48.1328 490.901 48.4197C490.909 48.4734 490.898 48.5283 490.869 48.5743C490.841 48.6204 490.796 48.6546 490.745 48.6707C489.928 49.0345 489.071 49.2998 488.192 49.461C487.048 49.6796 485.882 49.7629 484.719 49.7092C483.105 49.6615 481.529 49.2113 480.133 48.3993C479.109 47.829 478.226 47.0347 477.55 46.0755C476.875 45.1163 476.424 44.0168 476.23 42.8587C475.974 41.6037 476.019 40.3056 476.36 39.0712C476.702 37.8367 477.33 36.701 478.195 35.7573C479.438 34.3681 481.142 33.4784 482.99 33.2535C484.499 33.0094 486.047 33.185 487.463 33.7611C488.397 34.1471 489.233 34.7344 489.915 35.4811C490.596 36.2278 491.105 37.1157 491.405 38.0818C491.82 39.3429 491.967 40.6773 491.836 41.9988C491.824 42.1535 491.739 42.1268 491.649 42.1268L485.86 42.1247ZM484.009 39.9056C485.325 39.9056 486.642 39.9056 487.959 39.9056C488.086 39.9056 488.134 39.881 488.122 39.739C488.107 39.5054 488.079 39.2727 488.039 39.0422C487.963 38.5454 487.79 38.0686 487.529 37.6394C487.268 37.2102 486.925 36.8372 486.519 36.5419C486.078 36.2355 485.58 36.0201 485.055 35.9084C484.53 35.7968 483.988 35.791 483.461 35.8916C482.522 36.0224 481.657 36.4708 481.008 37.1625C480.359 37.8541 479.965 38.7474 479.893 39.694C479.876 39.867 479.921 39.9085 480.094 39.9049C481.399 39.8986 482.704 39.9056 484.009 39.9056Z" fill="#FFCD00"/>
<path d="M384.975 47.1075C384.301 47.7441 383.542 48.2852 382.722 48.7156C381.455 49.4134 380.027 49.7604 378.582 49.721C377.063 49.7203 375.601 49.1424 374.49 48.1039C373.743 47.3685 373.225 46.4315 373 45.4067C372.864 44.8244 372.797 44.228 372.802 43.6299C372.802 40.3516 372.801 37.0729 372.798 33.7941C372.798 33.619 372.836 33.5705 373.017 33.5726C374.105 33.582 375.193 33.582 376.282 33.5726C376.44 33.5726 376.473 33.6155 376.473 33.7673C376.468 36.9754 376.468 40.1835 376.473 43.3916C376.444 44.2069 376.691 45.0079 377.174 45.6648C377.426 45.9901 377.74 46.2617 378.098 46.4635C378.456 46.6654 378.851 46.7935 379.259 46.8404C380.151 46.9654 381.058 46.8934 381.919 46.6295C382.779 46.3655 383.572 45.916 384.241 45.3125C384.322 45.2498 384.386 45.1678 384.428 45.0738C384.469 44.9799 384.487 44.877 384.478 44.7746C384.471 41.1149 384.474 37.4552 384.469 33.7955C384.469 33.6274 384.497 33.5698 384.684 33.5712C385.778 33.5817 386.873 33.5789 387.967 33.5712C388.094 33.5712 388.134 33.5972 388.134 33.7329C388.13 38.8708 388.13 44.0085 388.134 49.1459C388.134 49.2731 388.108 49.3153 387.972 49.3146C387.03 49.3085 386.088 49.3085 385.146 49.3146C385.005 49.3146 384.971 49.2731 384.972 49.1367C384.979 48.4744 384.975 47.8107 384.975 47.1075Z" fill="white"/>
<path d="M407.744 40.618C407.639 40.3126 407.566 39.9971 407.526 39.6766C407.434 39.0739 407.387 38.4652 407.386 37.8555C407.378 35.3635 408.156 32.9329 409.61 30.9115C410.544 29.5825 411.73 28.4512 413.1 27.5824C414.47 26.7137 415.998 26.1247 417.596 25.8491C420.154 25.331 422.808 25.5941 425.214 26.6042C425.725 26.8222 426.219 27.0774 426.692 27.3678C426.714 27.3862 426.739 27.3999 426.766 27.4078C426.793 27.4158 426.822 27.4179 426.85 27.4141C426.878 27.4102 426.905 27.4005 426.929 27.3855C426.953 27.3705 426.973 27.3506 426.989 27.327C427.296 27.0127 427.612 26.7076 427.926 26.4003C427.959 26.3687 428.006 26.3181 428.036 26.3244C428.092 26.3356 428.084 26.4067 428.095 26.4559C428.55 28.5957 429.005 30.7355 429.461 32.8753C429.497 33.0469 429.531 33.2191 429.566 33.3914C429.591 33.5201 429.542 33.5587 429.413 33.532C428.495 33.3309 427.576 33.132 426.657 32.9351C425.248 32.6309 423.839 32.3262 422.43 32.021C422.383 32.0112 422.312 32.021 422.3 31.9578C422.289 31.9078 422.347 31.8811 422.379 31.8495C422.73 31.5035 423.076 31.1541 423.431 30.8173C423.542 30.7139 423.528 30.6767 423.401 30.6211C422.784 30.3556 422.137 30.1667 421.474 30.0586C420.419 29.9076 419.346 29.9416 418.303 30.1592C416.888 30.3845 415.519 30.8356 414.246 31.4951C412.704 32.2888 411.349 33.4031 410.27 34.7637C409.192 36.1242 408.415 37.6996 407.993 39.3848C407.885 39.7876 407.826 40.206 407.744 40.618Z" fill="#FFCD00"/>
<path d="M412.571 35.0428C412.472 35.3585 412.361 35.6453 412.286 35.9449C411.973 37.1037 411.945 38.3214 412.204 39.4935C412.464 40.6656 413.003 41.7571 413.776 42.6744C415.021 44.2677 416.827 45.3241 418.823 45.6275C420.012 45.8547 421.238 45.7986 422.401 45.4637C423.565 45.1288 424.634 44.5245 425.521 43.6995C426.001 43.278 426.43 42.8008 426.797 42.2778C426.876 42.1625 426.933 42.1506 427.036 42.2567C428.038 43.2842 429.044 44.3087 430.053 45.33C430.128 45.4067 430.128 45.4517 430.06 45.5297C428.223 47.7109 425.72 49.2238 422.938 49.8335C420.597 50.3298 418.167 50.1822 415.903 49.4064C413.639 48.6307 411.627 47.2557 410.08 45.4271C410.008 45.3428 409.955 45.2437 409.924 45.1367C409.585 43.9199 409.464 42.6525 409.567 41.3933C409.719 39.4898 410.413 37.6701 411.567 36.1509C411.828 35.7965 412.112 35.4607 412.419 35.1461C412.455 35.0939 412.51 35.057 412.571 35.0428Z" fill="#FFCD00"/>
<path d="M464.121 47.0785C464.121 47.5889 464.116 48.0987 464.124 48.6091C464.13 48.66 464.118 48.7114 464.089 48.7541C464.061 48.7968 464.019 48.8281 463.97 48.8426C463.095 49.2209 462.17 49.4705 461.224 49.5836C460.436 49.6978 459.64 49.7449 458.845 49.7243C456.74 49.6755 454.713 48.9226 453.085 47.5854C451.836 46.6151 450.922 45.278 450.469 43.7612C450.158 42.7157 450.071 41.616 450.214 40.5345C450.357 39.453 450.727 38.414 451.299 37.4859C451.897 36.4445 452.709 35.543 453.682 34.8418C454.655 34.1406 455.766 33.6557 456.941 33.4197C459.25 32.8775 461.673 33.1181 463.83 34.1039C464.192 34.267 464.54 34.4596 464.882 34.6579C464.975 34.7114 465.007 34.7451 464.94 34.852C464.412 35.7088 463.889 36.5688 463.371 37.4317C463.305 37.5407 463.261 37.5287 463.173 37.4626C462.472 36.8931 461.667 36.4654 460.803 36.2034C460.042 35.9617 459.237 35.8939 458.447 36.0048C457.656 36.1158 456.9 36.4027 456.235 36.8446C455.665 37.2342 455.181 37.736 454.811 38.3193C454.441 38.9027 454.194 39.5555 454.084 40.2378C453.816 41.3996 453.907 42.6155 454.343 43.7246C454.655 44.531 455.175 45.2402 455.849 45.78C456.524 46.3198 457.329 46.671 458.182 46.7979C459.147 46.9708 460.137 46.9413 461.089 46.7114C462.042 46.4814 462.936 46.056 463.716 45.462C463.745 45.4416 463.77 45.4156 463.801 45.398C463.98 45.2968 464.118 45.3706 464.118 45.5668C464.12 46.0702 464.121 46.5741 464.121 47.0785Z" fill="#FFCD00"/>
<g clip-path="url(#clip0_2185_610)">
<path d="M333.44 46.1193L339.56 39.9993L333.44 33.8793L335.334 31.9993L343.334 39.9993L335.334 47.9993L333.44 46.1193Z" fill="#7C7B79"/>
<path d="M322.001 46.1193L328.121 39.9993L322.001 33.8793L323.894 31.9993L331.894 39.9993L323.894 47.9993L322.001 46.1193Z" fill="white" fill-opacity="0.1"/>
</g>
<defs>
<linearGradient id="paint0_linear_2185_610" x1="187.913" y1="42.1177" x2="285.11" y2="42.1177" gradientUnits="userSpaceOnUse">
<stop stop-color="white"/>
<stop offset="0.465" stop-color="#FFCD03"/>
<stop offset="1" stop-color="#FF0B03"/>
</linearGradient>
<linearGradient id="paint1_linear_2185_610" x1="199.253" y1="13.7695" x2="223.959" y2="13.7695" gradientUnits="userSpaceOnUse">
<stop stop-color="white"/>
<stop offset="0.465" stop-color="#FFCD03"/>
<stop offset="1" stop-color="#FF0B03"/>
</linearGradient>
<clipPath id="clip0_2185_610">
<rect width="16" height="21.3333" fill="white" transform="matrix(0 -1 1 0 322 48)"/>
</clipPath>
</defs>
</svg>
